PathFileType	4	(X/Y/Z)	D:\Research_projects\MuscleProsody\BulkSports2Dtrack\RetrackedSports2D\p1_sample60_cam3\p1_sample60_cam3_Sports2D\p1_sample60_cam3_Sports2D_px_person00.trc
DataRate	CameraRate	NumFrames	NumMarkers	Units	OrigDataRate	OrigDataStartFrame	OrigNumFrames
60	60	9	22	m	60	585	780
Frame#	Time	Hip			RHip			RKnee			RAnkle			RBigToe			RSmallToe			RHeel			LHip			LKnee			LAnkle			LBigToe			LSmallToe			LHeel			Neck			Head			Nose			RShoulder			RElbow			RWrist			LShoulder			LElbow			LWrist		
		X1	Y1	Z1	X2	Y2	Z2	X3	Y3	Z3	X4	Y4	Z4	X5	Y5	Z5	X6	Y6	Z6	X7	Y7	Z7	X8	Y8	Z8	X9	Y9	Z9	X10	Y10	Z10	X11	Y11	Z11	X12	Y12	Z12	X13	Y13	Z13	X14	Y14	Z14	X15	Y15	Z15	X16	Y16	Z16	X17	Y17	Z17	X18	Y18	Z18	X19	Y19	Z19	X20	Y20	Z20	X21	Y21	Z21	X22	Y22	Z22
585	9.75	235.51143415166055	547.2548800840008	0.0	210.87597836673316	546.0080572463556	0.0	205.3242855679165	663.276922841593	0.0	220.07978412735727	772.9078775460546	0.0	182.8181807146357	811.6292431690895	0.0	181.619667522657	800.553539997276	0.0	235.72487067754932	787.0096000373477	0.0	258.3891721772331	549.9911217791935	0.0	249.19725504973133	670.6320703811481	0.0	255.95115964738662	794.1204841250566	0.0	219.97578901445274	829.7188183735677	0.0	238.83802133712922	834.182596089797	0.0	270.01490817662705	803.422918882854	0.0	233.04644824139885	359.34503690643373	0.0	206.40113872630712	269.4493041881703	0.0	189.9144885276379	325.53751511025723	0.0	202.40635406408813	392.3105709728641	0.0	176.02075484616046	471.1717865433198	0.0	163.59791355632115	461.9041026268148	0.0	282.1744384541813	392.0245492858754	0.0	259.3201692812642	481.62235980124586	0.0	171.0646193996518	502.95181058453943	0.0
586	9.766666666666666	235.46040894322456	547.2363753915761	0.0	210.81376616938957	545.9878988431875	0.0	205.27174722511484	663.3214075116081	0.0	220.09136019158896	772.8561352799678	0.0	182.80926794332692	811.6491997914835	0.0	181.60539433756065	800.6134368685904	0.0	235.66857423061109	787.0074276795431	0.0	258.25448687025886	549.9574961689182	0.0	249.07599826351506	670.6116693987555	0.0	255.95954267586345	794.108148789259	0.0	220.06398299934037	829.7398232903894	0.0	238.8531747612256	834.1490999025597	0.0	270.02172555686525	803.4803458735984	0.0	233.00615609984214	359.3170944263881	0.0	206.19742478868477	269.4280896988798	0.0	189.74689794326758	325.61268487212277	0.0	202.59330121556846	392.26333268051275	0.0	176.6275907036422	471.2147209694333	0.0	162.77591842899747	461.8434536086468	0.0	282.1250765308811	391.9644256802802	0.0	260.9329557744905	481.77034135793997	0.0	173.34892885929682	503.542798034424	0.0
587	9.783333333333333	235.37972372218343	547.2879932038621	0.0	210.7029355879573	546.0196488593224	0.0	205.24096932797687	663.3997852166639	0.0	220.15405639299678	772.7692993415792	0.0	182.83634413304392	811.6700909921252	0.0	181.59716272011318	800.6112147706588	0.0	235.63398308740574	786.9991467045052	0.0	258.0620333138398	549.9702950779873	0.0	248.96007986580284	670.5788014146481	0.0	255.98164451533293	794.0188144460341	0.0	220.24524283774866	829.7947627622498	0.0	238.93007904044597	834.1465389691687	0.0	269.9852748738817	803.5058398466886	0.0	232.99570625900915	359.2814223525762	0.0	205.8822594151166	269.3918734210655	0.0	189.54104568195783	325.7375546939282	0.0	202.77782361786143	392.20542376111257	0.0	177.16610198761325	471.0371521134681	0.0	160.48595602377603	461.64209005124707	0.0	282.143632142744	391.8393508903237	0.0	263.3892601169687	481.85713717448704	0.0	177.02415776841246	504.26757433072595	0.0
588	9.8	235.26672213869867	547.4101272116272	0.0	210.5471776146302	546.1051890227291	0.0	205.2365367874278	663.5055124521767	0.0	220.26413614246096	772.6479604588741	0.0	182.88665737735064	811.6970914547718	0.0	181.59198106113328	800.5600819961111	0.0	235.62821695241578	786.9727029295352	0.0	257.8176188961028	550.0381590062217	0.0	248.8521416947036	670.55215303366	0.0	256.01013627215764	793.8622806770544	0.0	220.5026677561737	829.8872851952453	0.0	239.0554112153823	834.1878969147047	0.0	269.9123831050103	803.5011734627367	0.0	233.01489472811963	359.2456030306688	0.0	205.47814482151466	269.3398287592479	0.0	189.30621792040506	325.9047750558897	0.0	202.94017442845862	392.14233213355607	0.0	177.5915334145431	470.65833626356834	0.0	156.8460707393239	461.33386832878784	0.0	282.22709264790814	391.6598651622183	0.0	266.5740898762945	481.84717339552367	0.0	182.1141618120908	505.0424905143608	0.0
589	9.816666666666666	235.1179170996242	547.5900332401231	0.0	210.3531069023737	546.2339197822939	0.0	205.25809221981564	663.6272786894656	0.0	220.41516132590596	772.4925881732258	0.0	182.94390339406527	811.7402280572578	0.0	181.58513751457886	800.4836071791701	0.0	235.65397725777817	786.9125692674877	0.0	257.53020598285127	550.1609595484524	0.0	248.75127756424837	670.5489899005113	0.0	256.0388718164376	793.6559530750598	0.0	220.81001848277776	830.0149684652042	0.0	239.2075954887123	834.2797374589543	0.0	269.81450927152304	803.4700170052397	0.0	233.05869270893294	359.218284259326	0.0	205.0119450499097	269.26904070818773	0.0	189.05043726293502	326.10039523725163	0.0	203.05498088692218	392.07770083484803	0.0	177.87759193380415	470.1317611921779	0.0	152.057386836024	460.95704000659606	0.0	282.3686382663387	391.4378735795602	0.0	270.3437840437049	481.7028188819286	0.0	188.63878390040696	505.75282073825883	0.0
590	9.833333333333334	234.92833181966847	547.80861844688	0.0	210.12669345833746	546.3877923906005	0.0	205.30021067142013	663.7578357558139	0.0	220.59951524256215	772.3041647669302	0.0	182.99604854682252	811.8092173446134	0.0	181.5742404483558	800.4031193230722	0.0	235.7063343086616	786.8061454134788	0.0	257.2102946888446	550.3310168972699	0.0	248.6546259669181	670.5844558043951	0.0	256.0660920412018	793.4214136683897	0.0	221.13810277599976	830.1694098618646	0.0	239.3645588509108	834.4195449450136	0.0	269.70148864641135	803.4200295629377	0.0	233.12059670954088	359.2049129358063	0.0	204.50997547006094	269.1763537008569	0.0	188.77912815320605	326.3020547209531	0.0	203.09659462559983	392.01509302572487	0.0	178.02401526215579	469.52635882935715	0.0	146.38491604407267	460.5473508928027	0.0	282.55826623389396	391.1866555099859	0.0	274.5403097271972	481.38690055878493	0.0	196.6026140864594	506.2732520915275	0.0
591	9.85	234.69592338803793	548.0475240763125	0.0	209.87446767028288	546.5517490695811	0.0	205.35386060912356	663.8996958539364	0.0	220.8092201884548	772.0915512070651	0.0	183.03627619465556	811.908119283942	0.0	181.56071940630576	800.3309666865339	0.0	235.77683617580098	786.6535211045118	0.0	256.87109995750365	550.5394929690689	0.0	248.55882343814866	670.6738766466948	0.0	256.09440067542215	793.1847029777773	0.0	221.4579936265875	830.3384864376377	0.0	239.50817052249218	834.5971462486725	0.0	269.5828231485646	803.3615801049481	0.0	233.19344140131477	359.2078681706373	0.0	203.99482222633992	269.0614551771382	0.0	188.49577682854536	326.4846041762925	0.0	203.04354523811838	391.9603085788172	0.0	178.05533533152158	468.907958590597	0.0	140.13848937796666	460.1375240248021	0.0	282.7840987210826	390.9203876786798	0.0	278.99947909176467	480.86742244012265	0.0	205.972608145399	506.4906724946037	0.0
592	9.866666666666667	234.4263560187413	548.2928065430261	0.0	209.6064341131077	546.7187171455962	0.0	205.40949411455748	664.0646490513288	0.0	221.03700857752216	771.8796251748197	0.0	183.06144496728618	812.0326961868843	0.0	181.5496813543188	800.2702176322624	0.0	235.85974587427248	786.47590757393	0.0	256.53254462800805	550.7778782523396	0.0	248.46288754107078	670.8299846628296	0.0	256.1280411322457	792.9766093427471	0.0	221.74351568050542	830.5085164954106	0.0	239.6261616420105	834.7973066943222	0.0	269.47084848661234	803.3060530158436	0.0	233.26648747922053	359.22771464018496	0.0	203.48533659177897	268.92814467348876	0.0	188.2046135823029	326.6279277297594	0.0	202.8799983385589	391.92233960933953	0.0	178.01457769243066	468.3292434673826	0.0	133.65879977011477	459.7614599397285	0.0	283.03474601954576	390.65300786924087	0.0	283.55379389579736	480.1224384187159	0.0	216.64062902487396	506.32348495706987	0.0
593	9.883333333333333	234.13244420882398	548.5334360365459	0.0	209.3346777743078	546.8852637915344	0.0	205.46037926850366	664.2666590636704	0.0	221.2763405229029	771.7040849837339	0.0	183.07396164578225	812.1723509422811	0.0	181.54838028999077	800.2182865056012	0.0	235.94854841047115	786.3112158351324	0.0	256.221225572642	551.0329180783172	0.0	248.37166408812857	671.0539779105708	0.0	256.1698293960326	792.8260875571049	0.0	221.97678176115124	830.6658176387635	0.0	239.71424837020245	835.0009267470903	0.0	269.37754481838203	803.2663763691111	0.0	233.32322494795082	359.26314634791356	0.0	202.9983673465798	268.78350192699713	0.0	187.9125423172408	326.72060138272764	0.0	202.5942508077601	391.91238883278817	0.0	177.95263810749273	467.825805030285	0.0	127.28949024280384	459.45306494470816	0.0	283.3004851551824	390.3954321460327	0.0	288.0397074362888	479.143088731598	0.0	228.39281617135708	505.73586833566	0.0
